<svg width="32" height="32" viewBox="0 0 32 32" fill="none" xmlns="http://www.w3.org/2000/svg">
<path d="M20.667 16.0003C20.667 15.3815 20.9128 14.788 21.3504 14.3504C21.788 13.9128 22.3815 13.667 23.0003 13.667C23.6192 13.667 24.2127 13.9128 24.6502 14.3504C25.0878 14.788 25.3337 15.3815 25.3337 16.0003C25.3337 16.6192 25.0878 17.2127 24.6502 17.6502C24.2127 18.0878 23.6192 18.3337 23.0003 18.3337C22.3815 18.3337 21.788 18.0878 21.3504 17.6502C20.9128 17.2127 20.667 16.6192 20.667 16.0003ZM13.667 16.0003C13.667 15.3815 13.9128 14.788 14.3504 14.3504C14.788 13.9128 15.3815 13.667 16.0003 13.667C16.6192 13.667 17.2127 13.9128 17.6502 14.3504C18.0878 14.788 18.3337 15.3815 18.3337 16.0003C18.3337 16.6192 18.0878 17.2127 17.6502 17.6502C17.2127 18.0878 16.6192 18.3337 16.0003 18.3337C15.3815 18.3337 14.788 18.0878 14.3504 17.6502C13.9128 17.2127 13.667 16.6192 13.667 16.0003ZM6.66699 16.0003C6.66699 15.3815 6.91282 14.788 7.35041 14.3504C7.78799 13.9128 8.38149 13.667 9.00033 13.667C9.61916 13.667 10.2127 13.9128 10.6502 14.3504C11.0878 14.788 11.3337 15.3815 11.3337 16.0003C11.3337 16.6192 11.0878 17.2127 10.6502 17.6502C10.2127 18.0878 9.61916 18.3337 9.00033 18.3337C8.38149 18.3337 7.78799 18.0878 7.35041 17.6502C6.91282 17.2127 6.66699 16.6192 6.66699 16.0003ZM9.00033 14.8337C8.69091 14.8337 8.39416 14.9566 8.17537 15.1754C7.95658 15.3942 7.83366 15.6909 7.83366 16.0003C7.83366 16.3097 7.95658 16.6065 8.17537 16.8253C8.39416 17.0441 8.69091 17.167 9.00033 17.167C9.30974 17.167 9.60649 17.0441 9.82528 16.8253C10.0441 16.6065 10.167 16.3097 10.167 16.0003C10.167 15.6909 10.0441 15.3942 9.82528 15.1754C9.60649 14.9566 9.30974 14.8337 9.00033 14.8337ZM16.0003 14.8337C15.6909 14.8337 15.3942 14.9566 15.1754 15.1754C14.9566 15.3942 14.8337 15.6909 14.8337 16.0003C14.8337 16.3097 14.9566 16.6065 15.1754 16.8253C15.3942 17.0441 15.6909 17.167 16.0003 17.167C16.3097 17.167 16.6065 17.0441 16.8253 16.8253C17.0441 16.6065 17.167 16.3097 17.167 16.0003C17.167 15.6909 17.0441 15.3942 16.8253 15.1754C16.6065 14.9566 16.3097 14.8337 16.0003 14.8337ZM23.0003 14.8337C22.6909 14.8337 22.3942 14.9566 22.1754 15.1754C21.9566 15.3942 21.8337 15.6909 21.8337 16.0003C21.8337 16.3097 21.9566 16.6065 22.1754 16.8253C22.3942 17.0441 22.6909 17.167 23.0003 17.167C23.3097 17.167 23.6065 17.0441 23.8253 16.8253C24.0441 16.6065 24.167 16.3097 24.167 16.0003C24.167 15.6909 24.0441 15.3942 23.8253 15.1754C23.6065 14.9566 23.3097 14.8337 23.0003 14.8337Z" fill="#FAFCFE"/>
</svg>
