<svg width="32" height="32" viewBox="0 0 32 32" fill="none" xmlns="http://www.w3.org/2000/svg">
<path d="M23.8505 9.98006L15.2755 0.176342C15.1895 0.0779528 15.0752 0.0165519 14.9528 0.00289475C14.8303 -0.0107624 14.7075 0.0241943 14.6057 0.101642L7.229 5.71717C7.1384 5.78617 7.06943 5.88521 7.03182 6.00035C6.9942 6.11549 6.98982 6.24092 7.01931 6.35898L9.67283 16.9904L7.7751 23.4374C7.74452 23.5417 7.74077 23.6536 7.76428 23.7602C7.7878 23.8668 7.83764 23.9639 7.90811 24.0403L15.0976 31.8345C15.1954 31.9406 15.3262 31.9999 15.4625 32C15.48 32 15.4975 31.999 15.5149 31.997C15.5908 31.9884 15.6641 31.9614 15.7297 31.9179C15.7953 31.8744 15.8516 31.8154 15.8947 31.7451L23.908 18.6774C23.968 18.5798 24.0001 18.4641 24 18.3457V10.3901C24 10.2368 23.9463 10.0896 23.8505 9.98006ZM15.1357 1.69311L22.8563 10.52L20.892 15.6706L12.888 9.57675L15.1357 1.69311ZM11.984 8.88871L8.45571 6.20288L13.9401 2.02708L11.984 8.88871ZM20.4745 16.7714L15.4736 29.8907L10.777 16.9817L12.5558 10.7418L20.4745 16.7714ZM21.3579 17.4413L22.746 18.4978L18.0132 26.2177L21.3579 17.4413ZM21.7772 16.3419L22.9518 13.2601V17.2373L21.7772 16.3419ZM8.41437 7.58968L11.6517 10.0541L10.2537 14.9588L8.41437 7.58968ZM10.2717 18.7045L14.0372 29.0552L8.8736 23.4561L10.2717 18.7045Z" fill="#FAFCFE"/>
</svg>
