<svg width="32" height="32" viewBox="0 0 32 32" fill="none" xmlns="http://www.w3.org/2000/svg">
<path d="M20.056 14.0399C19.9423 13.8797 19.8993 13.6825 19.9364 13.4917C19.9735 13.301 20.0876 13.1322 20.2537 13.0226L28.8128 7.3752C28.895 7.32093 28.9876 7.28282 29.0851 7.26304C29.1827 7.24326 29.2833 7.2422 29.3813 7.25992C29.4792 7.27764 29.5726 7.31379 29.6561 7.36632C29.7396 7.41884 29.8115 7.48671 29.8678 7.56604C29.924 7.64537 29.9636 7.73462 29.9841 7.82868C30.0046 7.92274 30.0057 8.01977 29.9873 8.11425C29.9689 8.20872 29.9314 8.29877 29.877 8.37927C29.8225 8.45977 29.7521 8.52913 29.6699 8.5834L21.1109 14.2307C21.0287 14.285 20.9362 14.3231 20.8386 14.3429C20.7411 14.3627 20.6404 14.3638 20.5425 14.3461C20.4445 14.3283 20.3511 14.2922 20.2677 14.2396C20.1842 14.1871 20.1123 14.1192 20.056 14.0399ZM29.8677 24.4167C29.8115 24.4961 29.7395 24.564 29.6561 24.6165C29.5726 24.6691 29.4792 24.7053 29.3813 24.723C29.2833 24.7407 29.1827 24.7397 29.0851 24.7199C28.9876 24.7001 28.895 24.6619 28.8128 24.6076L17.0983 16.8782L11.4061 20.6339C11.8492 21.5808 11.9085 22.6533 11.5724 23.6402C11.2363 24.6272 10.5292 25.457 9.59035 25.9662C8.65148 26.4755 7.5489 26.6273 6.49976 26.3917C5.45063 26.1561 4.531 25.5502 3.92199 24.6934C3.31298 23.8366 3.05874 22.7909 3.20934 21.7623C3.35994 20.7337 3.90447 19.7968 4.73568 19.1361C5.56689 18.4754 6.62452 18.1387 7.70028 18.1925C8.77603 18.2462 9.79193 18.6864 10.5479 19.4265L15.7542 15.9914L10.5479 12.5563C9.79369 13.2939 8.78046 13.7324 7.7077 13.7857C6.63494 13.8389 5.58039 13.5029 4.75167 12.8438C3.92296 12.1848 3.38013 11.2504 3.23008 10.2247C3.08002 9.19897 3.33361 8.15625 3.94092 7.30182C4.54822 6.44739 5.46523 5.84318 6.51139 5.60814C7.55755 5.37309 8.65706 5.52426 9.59342 6.03188C10.5298 6.53949 11.2352 7.36676 11.5706 8.35081C11.9061 9.33486 11.8474 10.4044 11.4061 11.3488L29.67 23.3994C29.8361 23.5091 29.9503 23.6778 29.9873 23.8686C30.0244 24.0594 29.9814 24.2566 29.8677 24.4167ZM10.2678 9.64852C10.2678 9.11777 10.1046 8.59894 9.79886 8.15763C9.49308 7.71633 9.05847 7.37237 8.54999 7.16926C8.0415 6.96615 7.48198 6.91301 6.94217 7.01655C6.40236 7.1201 5.90652 7.37568 5.51734 7.75098C5.12816 8.12628 4.86313 8.60444 4.75575 9.12499C4.64838 9.64555 4.70349 10.1851 4.91411 10.6755C5.12473 11.1658 5.48141 11.5849 5.93903 11.8798C6.39666 12.1747 6.93468 12.3321 7.48506 12.3321C8.22284 12.3312 8.93017 12.0483 9.45186 11.5452C9.97355 11.0421 10.267 10.36 10.2678 9.64852ZM10.2678 22.3343C10.2678 21.8036 10.1046 21.2847 9.79886 20.8434C9.49308 20.4021 9.05847 20.0582 8.54999 19.8551C8.0415 19.6519 7.48198 19.5988 6.94217 19.7023C6.40236 19.8059 5.90652 20.0615 5.51734 20.4368C5.12816 20.8121 4.86313 21.2902 4.75575 21.8108C4.64838 22.3313 4.70349 22.8709 4.91411 23.3613C5.12473 23.8516 5.48141 24.2707 5.93903 24.5656C6.39666 24.8605 6.93468 25.0178 7.48506 25.0178C8.22284 25.017 8.93017 24.7341 9.45186 24.231C9.97355 23.7279 10.267 23.0458 10.2678 22.3343Z" fill="#FAFCFE"/>
</svg>
