<svg height="512" viewBox="0 0 128 128" width="512" xmlns="http://www.w3.org/2000/svg"><path d="m91.876 46.026-28.625-29.267a1.75 1.75 0 0 0 -2.236-.223l-24.625 16.764a1.749 1.749 0 0 0 -.7 1.916l8.858 31.738-6.335 19.246a1.749 1.749 0 0 0 .444 1.8l24 23.268a1.751 1.751 0 0 0 1.218.494 1.724 1.724 0 0 0 .175-.009 1.751 1.751 0 0 0 1.268-.752l26.75-39.011a1.744 1.744 0 0 0 .307-.99v-23.75a1.751 1.751 0 0 0 -.499-1.224zm-29.092-24.739 25.773 26.351-6.557 15.376-26.719-18.192zm-10.521 21.481-11.778-8.018 18.308-12.466zm28.343 23.532-16.694 39.165-15.678-38.537 5.938-18.628zm2.949 2 4.634 3.154-15.799 23.046zm1.4-3.282 3.921-9.2v11.873zm-44.608-26.128 10.807 7.357-4.667 14.642zm6.2 33.181 12.57 30.9-17.237-16.715z"/></svg>